<?xml version="1.0" encoding="utf-8"?>
<svg viewBox="165.226 215.046 283.097 65.189" xmlns="http://www.w3.org/2000/svg">
  <g transform="matrix(0.056354, 0, 0, -0.056354, 117.381281, 332.120794)" fill="#000000" stroke="none" style="">
    <path d="M1400 1962 c0 -25 20 -42 50 -42 30 0 50 17 50 42 0 15 -9 18 -50 18 -41 0 -50 -3 -50 -18z" style="fill: rgb(50, 138, 241);"/>
    <path d="M1395 1837 c17 -7 44 -20 62 -30 44 -24 48 -22 23 13 -19 26 -27 30 -68 29 -47 -1 -47 -1 -17 -12z" style="fill: rgb(50, 138, 241);"/>
    <path d="M1124 1819 l-19 -22 35 18 c45 23 47 25 23 25 -11 0 -28 -10 -39 -21z" style="fill: rgb(50, 138, 241);"/>
    <path d="M1530 1640 c-58 -4 -127 -8 -153 -9 -47 -1 -47 -1 -30 -20 10 -11 43 -79 73 -151 30 -72 57 -133 61 -135 3 -3 19 27 34 66 35 85 88 149 147 174 24 10 45 20 47 21 9 7 -43 64 -57 62 -9 -1 -64 -5 -122 -8z" style="fill: rgb(50, 138, 241);"/>
    <path d="M1060 1611 c-26 -4 -36 -12 -38 -29 -5 -36 17 -122 52 -196 l31 -69 59 139 c33 76 64 145 69 152 7 9 -7 12 -64 11 -41 -1 -90 -4 -109 -8z" style="fill: rgb(50, 138, 241);"/>
    <path d="M1850 1490 c-12 -7 -12 -13 -4 -27 23 -37 84 -23 84 18 0 15 -7 19 -32 19 -18 0 -40 -5 -48 -10z" style="fill: rgb(50, 138, 241);"/>
    <path d="M1638 1273 c-81 -181 -97 -212 -116 -222 -60 -32 -97 1 -161 144 -36 81 -54 110 -67 110 -13 0 -32 -30 -71 -115 -54 -119 -79 -150 -119 -150 -39 0 -71 40 -117 145 l-43 100 -48 3 -47 3 7 -38 c19 -108 71 -173 201 -249 126 -75 167 -88 259 -82 82 5 134 28 259 109 54 35 83 66 151 157 46 63 84 118 84 123 0 5 -16 9 -35 9 -19 0 -35 5 -35 10 0 6 -16 10 -36 10 -34 0 -36 -2 -66 -67z" style="fill: rgb(50, 138, 241);"/>
  </g>
  <text style="fill: rgb(255, 255, 255); font-family: Arial, sans-serif; font-size: 36px; font-weight: 700; white-space: pre;"><tspan x="230.362" y="264.958" style="text-transform: uppercase;">w</tspan><tspan>p</tspan><tspan style="text-transform: uppercase;">w</tspan><tspan>eb</tspan><tspan style="text-transform: uppercase;">g</tspan><tspan>uru</tspan></text>
  <text style="white-space: pre; fill: rgb(51, 51, 51); font-family: Arial, sans-serif; font-size: 9px;" x="172.408" y="51.888" transform="matrix(1, 0, 0, 1, 83.941675, 171.48627)"> </text>
  <text style="white-space: pre; fill: rgb(51, 51, 51); font-family: Arial, sans-serif; font-size: 9px;" x="145.288" y="81.333" transform="matrix(1, 0, 0, 1, 83.941675, 171.48627)"> </text>
  <text style="white-space: pre; fill: rgb(51, 51, 51); font-family: Arial, sans-serif; font-size: 19.4px;" x="378.956" y="273.058"> </text>
</svg>