<?xml version="1.0" encoding="utf-8"?>
<svg viewBox="163.778 180.659 164.054 38" width="164.054" height="38" xmlns="http://www.w3.org/2000/svg">
  <path d="M22.8019 18.9974C22.8019 20.4036 22.042 21.6198 20.9021 22.2658V36.0997C20.9021 37.1449 20.0473 38 19.0024 38C17.9575 38 17.1026 37.1449 17.1026 36.0997V22.2658C15.9628 21.6008 15.2029 20.4036 15.2029 18.9974C15.2029 16.9071 16.9127 15.1969 19.0024 15.1969C21.0921 15.1969 22.8019 16.9071 22.8019 18.9974ZM16.6277 7.84287C12.3152 8.71699 8.80068 12.1755 7.86979 16.4891C7.10989 20.0235 8.00278 23.368 9.92153 25.8763C10.5865 26.7315 11.8783 26.7695 12.6382 26.0094L12.7712 25.8763C13.4171 25.2303 13.4171 24.2231 12.8852 23.501C11.5933 21.7908 11.0234 19.5105 11.6313 17.0971C12.2962 14.3988 14.519 12.2135 17.2356 11.6244C18.351 11.3539 19.5133 11.3404 20.6347 11.5847C21.7561 11.829 22.8074 12.3249 23.7093 13.0349C24.6112 13.7449 25.3401 14.6505 25.8411 15.6833C26.3421 16.7162 26.6021 17.8494 26.6014 18.9974C26.6014 20.6506 26.0695 22.1708 25.1576 23.406C24.5877 24.1851 24.6067 25.2493 25.2906 25.9333C26.1265 26.7695 27.5133 26.6364 28.2162 25.6673C29.5841 23.8051 30.4009 21.4867 30.4009 18.9974C30.4009 11.9284 23.9608 6.36067 16.6277 7.84287ZM16.7797 0.127818C8.17376 1.09695 1.16364 8.0709 0.137773 16.6791C-0.527143 22.2848 1.25863 27.4536 4.54522 31.3111C5.24813 32.1282 6.50197 32.1852 7.26187 31.4251L7.35686 31.3301C8.02178 30.665 8.07877 29.5819 7.45185 28.8598C5.88996 27.0391 4.78269 24.8734 4.22121 22.541C3.65973 20.2086 3.66009 17.7762 4.22226 15.4439C5.55209 9.72413 10.2635 5.20151 16.0388 4.09936C25.7085 2.23711 34.2005 9.64812 34.2005 18.9974C34.2005 22.7219 32.8326 26.1424 30.5909 28.8027C30.2832 29.1648 30.1223 29.629 30.1399 30.1039C30.1575 30.5788 30.3523 31.0298 30.6859 31.3681C31.4838 32.1662 32.7946 32.1092 33.5166 31.2351C36.4161 27.8176 38.0054 23.4797 38 18.9974C38 7.76686 28.2542 -1.18336 16.7797 0.127818Z" fill="#ED8A0A" transform="matrix(1, 0, 0, 1, 163.778307, 180.658694)"/>
  <text style="fill: rgb(51, 51, 51); font-family: Arial, sans-serif; font-size: 20px; font-weight: 700; white-space: pre;" x="207.104" y="208.596">WpWebGuru</text>
</svg>